<?xml version="1.0" encoding="utf-8"?>
<!-- Generator: Adobe Illustrator 22.1.0, SVG Export Plug-In . SVG Version: 6.00 Build 0)  -->
<svg version="1.1"
	 id="Routenzuege" xmlns:cc="http://creativecommons.org/ns#" xmlns:dc="http://purl.org/dc/elements/1.1/" xmlns:rdf="http://www.w3.org/1999/02/22-rdf-syntax-ns#" xmlns:svg="http://www.w3.org/2000/svg"
	 xmlns="http://www.w3.org/2000/svg" xmlns:xlink="http://www.w3.org/1999/xlink" x="0px" y="0px" viewBox="0 0 133.3 133.3"
	 style="enable-background:new 0 0 133.3 133.3;" xml:space="preserve">
<metadata><?xpacket begin="﻿" id="W5M0MpCehiHzreSzNTczkc9d"?>
<x:xmpmeta xmlns:x="adobe:ns:meta/" x:xmptk="Adobe XMP Core 5.6-c143 79.161356, 2017/09/07-01:11:22        ">
   <rdf:RDF xmlns:rdf="http://www.w3.org/1999/02/22-rdf-syntax-ns#">
      <rdf:Description rdf:about=""/>
   </rdf:RDF>
</x:xmpmeta>
                                                                                                    
                                                                                                    
                                                                                                    
                                                                                                    
                                                                                                    
                                                                                                    
                                                                                                    
                                                                                                    
                                                                                                    
                                                                                                    
                                                                                                    
                                                                                                    
                                                                                                    
                                                                                                    
                                                                                                    
                                                                                                    
                                                                                                    
                                                                                                    
                                                                                                    
                                                                                                    
                           
<?xpacket end="w"?></metadata>
<style type="text/css">
	.st0{fill:#F96915;}
	.st1{fill:#FFFFFF;}
</style>
<circle class="st0" cx="66.7" cy="66.7" r="61.3"/>
<path class="st1" d="M22.5,83.2c0-1-0.8-1.8-1.8-1.8s-1.8,0.8-1.8,1.8s0.8,1.8,1.8,1.8S22.5,84.2,22.5,83.2 M44.2,83.2
	c0-1-0.8-1.8-1.8-1.8s-1.8,0.8-1.8,1.8s0.8,1.8,1.8,1.8C43.3,85,44.2,84.2,44.2,83.2 M18.6,81.4h-1.5v2h0.8c0-0.1,0-0.1,0-0.2
	C17.9,82.5,18.2,81.8,18.6,81.4 M40.3,81.4H22.7c0.4,0.5,0.7,1.1,0.7,1.8c0,0.1,0,0.1,0,0.2h16.2c0-0.1,0-0.1,0-0.2
	C39.6,82.5,39.9,81.8,40.3,81.4 M45.1,83.2c0,0.1,0,0.1,0,0.2h1v-2h-1.7C44.8,81.8,45.1,82.5,45.1,83.2 M17.1,80.3h29V61.8h-29
	C17.1,61.8,17.1,80.3,17.1,80.3z M54.1,83.2c0-1-0.8-1.8-1.8-1.8s-1.8,0.8-1.8,1.8s0.8,1.8,1.8,1.8S54.1,84.2,54.1,83.2 M75.8,83.2
	c0-1-0.8-1.8-1.8-1.8s-1.8,0.8-1.8,1.8S73,85,74,85S75.8,84.2,75.8,83.2 M76.7,83.2c0,0.1,0,0.1,0,0.2h1v-2H76
	C76.5,81.8,76.7,82.5,76.7,83.2 M50.2,81.4h-1.5v2h0.8c0-0.1,0-0.1,0-0.2C49.5,82.5,49.8,81.8,50.2,81.4 M71.9,81.4H54.4
	c0.4,0.5,0.7,1.1,0.7,1.8c0,0.1,0,0.1,0,0.2h16.2c0-0.1,0-0.1,0-0.2C71.2,82.5,71.5,81.8,71.9,81.4 M48.7,80.3h29V61.8h-29
	C48.7,61.8,48.7,80.3,48.7,80.3z M84.4,81.4c-1,0-1.8,0.8-1.8,1.8s0.8,1.8,1.8,1.8s1.8-0.8,1.8-1.8C86.2,82.2,85.4,81.4,84.4,81.4
	 M111.8,81.4c-1,0-1.8,0.8-1.8,1.8s0.8,1.8,1.8,1.8s1.8-0.8,1.8-1.8C113.6,82.2,112.8,81.4,111.8,81.4 M115.2,83.4h-0.6
	c0-0.1,0-0.2,0-0.3c0-1.6-1.3-2.8-2.8-2.8c-1.6,0-2.8,1.3-2.8,2.8c0,0.1,0,0.2,0,0.3h-6.5H87.2c0-0.1,0-0.2,0-0.3
	c0-1.6-1.3-2.8-2.8-2.8c-1.6,0-2.8,1.3-2.8,2.8c0,0.1,0,0.2,0,0.3h-0.9v-5c0-5.2,5-6.4,5.7-6.5V61.7h3.8v-1.8c-1,0-1.2-1.3,0-1.3
	s3.1,0.8,3,4.6c-0.1,1.7-0.4,2.8-0.8,3.6v14.5h10.2V61.4c2-0.4,3.4-0.6,5.5-0.6v-1.1c-0.6,0-1.2,0-1.9-0.1l2.8-4.4
	c0,0,5.5,3.8,0.8,4.4v1.1c0.4,0,1.2,0,2.1,0c3.8,0,3.9,4.3,4.4,14.6C116.5,82,115.2,83.4,115.2,83.4"/>
</svg>
